# xmcd
#
# Track frame offsets: 
#        150
#        11700
#        27791
#        39718
#        63352
#        85267
#        109819
#        128203
#        140974
#        162998
#        179651
#        190086
#        203210
#        215489
#
# Disc length: 2979 seconds
#
# Revision: 1
# Processed by: cddbd v1.5.2PL0 Copyright (c) Steve Scherf et al.
# Submitted via: ExactAudioCopy v0.99pb4
#
DISCID=d00ba10e
DTITLE=Mina Agossi - Well you needn't
DYEAR=2005
DGENRE=Jazz
TTITLE0=Why don't you do right ?
TTITLE1=Don't look at me
TTITLE2=Well you needn't
TTITLE3=Drive
TTITLE4=May i sit at your table
TTITLE5=Father's talk
TTITLE6=Ghost of yesterday
TTITLE7=You
TTITLE8=Voodoo chile
TTITLE9=Rose petals
TTITLE10=After you've gone
TTITLE11=Laundry man blues
TTITLE12=Au bois de Boulogne
TTITLE13=Et je m'en vais clopin clopant
EXTD=YEAR: 2005
EXTT0=
EXTT1=
EXTT2=
EXTT3=
EXTT4=
EXTT5=
EXTT6=
EXTT7=
EXTT8=
EXTT9=
EXTT10=
EXTT11=
EXTT12=
EXTT13=
PLAYORDER=
